<?xml version="1.0" encoding="UTF-8" standalone="no"?>
<!-- Created with Inkscape (http://www.inkscape.org/) -->

<svg
   xmlns:dc="http://purl.org/dc/elements/1.1/"
   xmlns:cc="http://creativecommons.org/ns#"
   xmlns:rdf="http://www.w3.org/1999/02/22-rdf-syntax-ns#"
   xmlns:svg="http://www.w3.org/2000/svg"
   xmlns="http://www.w3.org/2000/svg"
   xmlns:sodipodi="http://sodipodi.sourceforge.net/DTD/sodipodi-0.dtd"
   xmlns:inkscape="http://www.inkscape.org/namespaces/inkscape"
   width="209.41298mm"
   height="116.42496mm"
   viewBox="0 0 209.41298 116.42496"
   version="1.1"
   id="svg8"
   inkscape:version="0.92.5 (2060ec1f9f, 2020-04-08)"
   sodipodi:docname="LOGO1.svg">
  <defs
     id="defs2">
    <inkscape:path-effect
       effect="bspline"
       id="path-effect817"
       is_visible="true"
       weight="33.333333"
       steps="2"
       helper_size="0"
       apply_no_weight="true"
       apply_with_weight="true"
       only_selected="false" />
  </defs>
  <sodipodi:namedview
     id="base"
     pagecolor="#ffffff"
     bordercolor="#666666"
     borderopacity="1.0"
     inkscape:pageopacity="0.0"
     inkscape:pageshadow="2"
     inkscape:zoom="0.68061167"
     inkscape:cx="419.31294"
     inkscape:cy="217.77554"
     inkscape:document-units="mm"
     inkscape:current-layer="layer1"
     showgrid="false"
     inkscape:window-width="1280"
     inkscape:window-height="961"
     inkscape:window-x="-8"
     inkscape:window-y="-8"
     inkscape:window-maximized="1"
     fit-margin-top="0"
     fit-margin-left="0"
     fit-margin-right="0"
     fit-margin-bottom="0" />
  <metadata
     id="metadata5">
    <rdf:RDF>
      <cc:Work
         rdf:about="">
        <dc:format>image/svg+xml</dc:format>
        <dc:type
           rdf:resource="http://purl.org/dc/dcmitype/StillImage" />
        <dc:title></dc:title>
      </cc:Work>
    </rdf:RDF>
  </metadata>
  <g
     inkscape:label="Layer 1"
     inkscape:groupmode="layer"
     id="layer1"
     transform="translate(12.746227,-89.694821)">
    <path
       style="fill:none;stroke:#000000;stroke-width:0.26458332px;stroke-linecap:butt;stroke-linejoin:miter;stroke-opacity:1"
       d="m 36.153203,166.77094 c 14.12445,7.90451 36.80115,15.03147 62.587591,17.87902 25.786446,2.84756 54.424396,1.42856 72.911756,-2.23387 18.48735,-3.66243 26.86607,-9.68464 30.94786,-12.60024 4.08179,-2.91561 3.9522,-2.78602 -6.63009,-3.24047 -10.5823,-0.45445 -31.53159,-1.48898 -57.12406,-3.82145 -25.59246,-2.33248 -55.784513,-5.96071 -77.942968,-9.65378 -22.158455,-3.69306 -36.282692,-7.45089 -43.280031,-9.39476 -6.997338,-1.94388 -6.867758,-2.07346 -4.022818,2.19396 2.844941,4.26741 8.42831,12.96708 22.55276,20.87159 z"
       id="path815"
       inkscape:connector-curvature="0"
       inkscape:path-effect="#path-effect817"
       inkscape:original-d="m 27.600785,167.54843 c 22.676967,7.1267 45.353668,14.25366 68.030103,21.38089 28.896652,-1.42565 57.534292,-2.85105 86.301042,-4.27618 8.1638,-5.96094 16.58666,-11.92173 24.87958,-17.8822 -0.1293,0.12931 -0.25889,0.2589 -0.38874,0.38874 -21.03474,-1.03903 -41.98403,-2.07356 -62.97644,-3.10994 -30.1925,-3.62858 -60.384548,-7.25681 -90.57722,-10.88482 -14.124189,-3.75815 -28.248427,-7.51597 -42.373037,-11.27356 0.129848,-0.12985 0.259427,-0.25943 0.388744,-0.38874 5.560877,8.66394 11.144243,17.36361 16.715968,26.04581 z"
       transform="translate(-8.552356,19.825916)" />
    <path
       style="fill:#ffcc00;stroke-width:0.26458332"
       id="path819"
       sodipodi:type="arc"
       sodipodi:cx="-44.511127"
       sodipodi:cy="-150.50865"
       sodipodi:rx="32.460079"
       sodipodi:ry="31.682592"
       sodipodi:start="5.8306695"
       sodipodi:end="4.0129909"
       d="m -15.318156,-164.36122 a 32.460079,31.682592 0 0 1 -12.6488,41.11118 32.460079,31.682592 0 0 1 -43.01724,-8.92466 32.460079,31.682592 0 0 1 5.576659,-42.57842"
       transform="scale(-1)"
       sodipodi:open="true" />
    <path
       style="fill:#000080;stroke-width:1.46926665"
       d="M 394.64649,776.07726 C 328.31538,771.27093 288.61712,765.58694 241.10813,754.09367 149.54334,731.9425 85.91662,700.89627 46.290026,659.03351 35.507596,647.64262 12.271597,615.93931 13.676054,614.53485 c 0.32478,-0.32478 10.472031,2.08759 22.549447,5.36081 68.491359,18.56252 143.261969,33.15187 236.043149,46.05706 141.34396,19.65992 291.7685,33.33527 438.76329,39.88872 12.39268,0.5525 24.53011,1.41317 26.97208,1.91261 4.41381,0.90272 4.37025,0.95825 -7.39545,9.42962 -43.1511,31.06904 -97.16265,47.17157 -188.69609,56.25625 -20.95809,2.08009 -128.40146,4.00425 -147.26599,2.63734 z"
       id="path821"
       inkscape:connector-curvature="0"
       transform="scale(0.26458333)" />
    <flowRoot
       xml:space="preserve"
       id="flowRoot823"
       style="font-style:normal;font-variant:normal;font-weight:normal;font-stretch:normal;font-size:53.33333206px;line-height:1.25;font-family:'Goudy Stout';-inkscape-font-specification:'Goudy Stout';letter-spacing:0px;word-spacing:0px;fill:#000000;fill-opacity:1;stroke:none"><flowRegion
         id="flowRegion825"
         style="font-style:normal;font-variant:normal;font-weight:normal;font-stretch:normal;font-family:'Goudy Stout';-inkscape-font-specification:'Goudy Stout'"><rect
           id="rect827"
           width="548.03644"
           height="183.65833"
           x="199.82025"
           y="468.69604"
           style="font-style:normal;font-variant:normal;font-weight:normal;font-stretch:normal;font-family:'Goudy Stout';-inkscape-font-specification:'Goudy Stout'" /></flowRegion><flowPara
         id="flowPara829" /></flowRoot>    <text
       xml:space="preserve"
       style="font-style:normal;font-variant:normal;font-weight:normal;font-stretch:normal;font-size:22.35245323px;line-height:1.25;font-family:'Rockwell Extra Bold';-inkscape-font-specification:'Rockwell Extra Bold, ';letter-spacing:0px;word-spacing:0px;fill:#000000;fill-opacity:1;stroke:none;stroke-width:0.41910854"
       x="56.776222"
       y="133.00371"
       id="text833"
       transform="scale(0.90379616,1.1064442)"><tspan
         sodipodi:role="line"
         id="tspan831"
         x="56.776222"
         y="133.00371"
         style="font-style:normal;font-variant:normal;font-weight:normal;font-stretch:normal;line-height:1.25;font-family:'Rockwell Extra Bold';-inkscape-font-specification:'Rockwell Extra Bold, ';stroke-width:0.41910854">APARTMAN</tspan><tspan
         sodipodi:role="line"
         x="56.776222"
         y="160.94427"
         style="font-style:normal;font-variant:normal;font-weight:normal;font-stretch:normal;line-height:1.25;font-family:'Rockwell Extra Bold';-inkscape-font-specification:'Rockwell Extra Bold, ';stroke-width:0.41910854"
         id="tspan835">     OLIVA</tspan></text>
    <path
       style="fill:#ffcc00;stroke-width:0.26458332"
       id="path837"
       d="m 43.843873,113.04547 c -0.150008,-1.90817 0.311275,-3.86005 0.968891,-5.64437 0.205611,-0.6309 0.56437,-1.16767 0.927973,-1.7099 0.114192,-0.17029 0.216744,-0.34823 0.33174,-0.51798 0.01958,-0.0289 0.07999,-0.11069 0.07123,-0.0769 -0.02244,0.0866 -0.07613,0.1618 -0.114199,0.2427 -0.04778,0.0992 -0.121018,0.40535 -0.143351,0.29754 -0.03704,-0.17879 0.06831,-0.35889 0.09317,-0.53978 0.09981,-0.72635 0.319387,-1.38223 0.588447,-2.06275 -0.108966,-0.18801 0.566288,-0.95448 0.502907,-1.18292 -0.0057,-0.0207 -0.02832,-0.0322 -0.04249,-0.0483 -0.01021,-0.0742 -0.02045,-0.14844 -0.03066,-0.22267 -0.101658,-0.85505 -0.15975,-1.713464 -0.178726,-2.574093 0.01098,-0.921949 -0.01442,-1.842124 0.01069,-2.764174 0.03225,-0.774697 0.05059,-1.549587 0.04904,-2.324936 -0.0079,-0.76595 -0.01699,-1.531863 -0.01955,-2.297856 -0.0011,-0.526459 0.0011,-1.052914 0.0029,-1.579369 5.29e-4,-0.464878 6.574898,-0.457303 6.574364,0.0076 v 0 c 2.65e-4,0.529222 2.4e-5,1.05845 -0.0049,1.587654 -0.0068,0.738777 -0.01924,1.477655 -0.0077,2.216449 0.01826,0.839239 0.05943,1.67808 0.05477,2.517703 -0.01495,0.800582 -0.106862,1.595099 -0.100533,2.394207 0.07367,0.922433 0.265438,1.833595 0.270906,2.761925 -0.03313,1.15255 -0.164068,2.36202 -0.749646,3.38171 -0.275341,0.84338 -0.640776,1.63951 -0.783008,2.53036 -0.38087,0.87375 -0.459711,0.75154 -0.595281,1.45579 -0.243268,1.71861 -0.519975,3.43716 -1.155094,5.06298 -0.06439,0.46117 -6.586246,-0.44943 -6.521857,-0.91059 z"
       inkscape:connector-curvature="0" />
    <path
       style="fill:#ffcc00;stroke-width:0.26458332"
       id="path841"
       d="m 62.651301,116.11843 c 0.40061,-1.88904 1.374761,-3.54285 2.580404,-5.02515 0.542774,-0.72178 1.224449,-1.30157 1.808263,-1.98472 0.528336,-0.65297 1.094846,-1.27943 1.713085,-1.84873 0.485431,-0.55093 0.889195,-1.24673 1.325898,-1.85885 0.372684,-0.30224 0.520338,-0.86067 0.792964,-1.43863 0.439677,-0.93581 0.886288,-1.84931 1.455883,-2.7147 0.236551,-0.21005 0.741429,-1.24038 1.232083,-1.955326 0.06589,-0.07709 0.12296,-0.162684 0.19767,-0.231256 0.0199,-0.01826 -0.248991,0.700145 -0.122338,0.312436 0.157845,-0.483185 0.386278,-0.943449 0.629676,-1.38815 0.127487,-0.292336 0.267074,-0.581253 0.357947,-0.887481 0.117798,-0.451819 6.507462,1.214104 6.389664,1.665919 v 0 c -0.226428,0.714423 -0.514485,1.376568 -0.868423,2.036198 -0.478132,0.75857 -0.04914,0.1889 -0.177205,0.12612 -0.04166,-0.0204 -0.03396,0.0864 -0.04948,0.1301 -0.219927,0.61952 -0.406345,1.24235 -0.844492,1.75139 -0.08332,-0.20488 0.0047,-0.0326 -0.252894,0.33419 -0.02122,0.0302 -0.07028,0.0325 -0.09097,0.0631 -0.28235,0.41699 -0.377405,0.95397 -0.70385,1.34876 -0.213201,0.0295 -0.0079,-0.0121 -0.271579,0.446 -0.319413,0.55476 -0.536363,1.15402 -0.847098,1.71744 -0.594011,0.72052 -0.761026,1.73679 -1.454835,2.40075 0.0056,-0.0482 0.05433,-0.17537 0.01691,-0.14452 -0.428279,0.35303 -0.831715,1.82726 -1.264521,2.15184 -0.163822,0.19386 -0.3151,0.39905 -0.491466,0.58157 -0.515387,0.53336 -1.228561,0.85399 -1.61104,1.52182 -0.396145,0.30064 -0.624189,0.43115 -0.695762,0.80154 -0.616942,1.37697 -1.441555,2.68325 -2.394428,3.85041 -0.124595,0.44973 -6.484657,-1.31232 -6.360062,-1.76205 z"
       inkscape:connector-curvature="0" />
    <path
       style="fill:#ffcc00;stroke-width:0.26458332"
       id="path855"
       d="m 29.34073,114.77053 c -0.916921,-1.6662 -1.115838,-3.54744 -1.137983,-5.41409 -0.278921,-0.88072 -0.607364,-1.74565 -0.823161,-2.6489 0.08794,-0.0587 -0.466657,-2.2595 -0.11393,-0.89009 -0.537392,-0.98204 -0.888422,-2.03874 -1.080325,-3.13947 -0.04842,-0.10051 -0.03492,-0.22771 -0.09487,-0.32229 -0.03817,-0.0602 -0.0023,0.24201 -0.06285,0.20442 -0.204953,-0.12718 -0.682678,-1.08512 -0.693132,-1.1038 -0.06614,-0.11691 -0.13907,-0.23023 -0.198421,-0.35073 -0.119802,-0.24324 -0.327621,-0.62975 -0.450403,-0.89851 -0.23211,-0.508089 -0.300857,-0.80578 -0.222233,-0.489214 -0.46489,-0.806535 -0.02347,-0.0991 -0.14038,-0.06095 -0.114134,0.03724 -0.17146,-0.168127 -0.259131,-0.250145 -0.514535,-0.481375 -0.158664,-0.08661 -0.747206,-0.863656 -0.563304,-0.511021 -1.003868,-1.125921 -1.467301,-1.726996 -0.58851,-0.573212 -0.862265,-1.371206 -1.3038,-2.041655 -0.206846,-0.417504 5.69758,-3.342746 5.904425,-2.925238 v 0 c 0.30398,0.511505 0.579504,1.041998 0.948103,1.511575 0.474969,0.596146 1.079603,1.09265 1.515292,1.727705 0.518142,0.505346 0.956239,1.090417 1.302324,1.724028 0.346358,0.625194 0.840849,1.242441 1.20632,1.990336 0.59902,0.902094 1.116201,1.91673 1.326545,3.01703 0.01929,0.18693 0.405055,1.7878 0.07794,0.80453 0.516213,0.80835 0.848744,1.7391 1.091155,2.66358 0.328303,1.09545 0.676823,2.18404 1.033193,3.27079 0.343537,1.46451 0.638966,2.94728 0.749892,4.44969 0.124595,0.44973 -6.235467,2.21178 -6.360062,1.76205 z"
       inkscape:connector-curvature="0" />
    <path
       style="fill:#ffcc00;stroke-width:0.26458332"
       id="path857"
       d="m 13.063332,123.69915 c -0.893801,-1.26444 -1.631463,-2.61569 -1.912351,-4.15299 -0.02365,-0.12954 -0.171214,-0.47396 -0.07095,-0.3886 0.157409,0.134 0.167285,0.37892 0.270184,0.55821 0.06666,0.11613 0.310453,0.43635 0.236542,0.32469 -0.628349,-0.94927 -0.781948,-1.35369 -0.920049,-2.48843 0.131658,0.67488 -0.08187,0.0551 -0.08229,0.0977 -0.0012,0.12807 0.08221,0.25247 0.06279,0.37906 -0.0077,0.05 -0.06369,-0.08 -0.103959,-0.11061 -0.392386,-0.29861 0.323816,0.57344 -0.432362,-0.50113 -0.5286173,-0.3823 -0.7245492,-1.11624 -1.057028,-1.66393 -0.032269,-0.0532 0.040105,0.11772 0.060158,0.17659 -0.3585433,-0.63627 -0.8804661,-1.08361 -1.3114869,-1.65051 -0.3939096,-0.55877 -0.619237,-1.21014 -0.92093,-1.81024 -0.055975,-0.11133 -0.079433,-0.24056 -0.1531262,-0.34105 -0.048176,-0.0657 0.049243,0.15531 0.073864,0.23297 -0.574572,-0.52246 -1.0319152,-1.15725 -1.5392759,-1.75427 -0.6798969,-0.78971 -1.2508669,-1.72746 -1.7212866,-2.6071 -0.047547,-0.0776 -0.2051486,-0.29904 -0.1426408,-0.23287 0.1102934,0.11676 0.2272048,0.23772 0.2877553,0.38649 0.037807,0.0929 -0.143392,-0.14025 -0.215781,-0.20966 -0.1058907,-0.10152 -0.2269053,-0.18899 -0.3190499,-0.30314 -0.670241,-0.83031 -0.2336811,-0.55997 -0.5971409,-0.7706 -0.089161,-0.17772 -1.2312589,-1.68182 -1.2393584,-1.68064 -0.058683,0.009 0.026866,0.11554 0.040299,0.17331 -0.3066928,-0.35048 4.6498129,-4.68777 4.9565057,-4.33729 v 0 c 0.6915592,0.7462 1.2906513,1.52498 1.7547458,2.43419 0.088206,0.13573 0.2050264,0.25669 0.2646188,0.4072 0.045447,0.11478 -0.344097,-0.26369 -0.2245554,-0.29451 0.333629,-0.086 0.5463054,0.60818 0.8525534,0.78279 0.7324752,0.88143 1.455801,1.76912 2.007375,2.78093 0.441239,0.64112 0.894967,1.27099 1.383584,1.87744 0.128013,0.21059 0.409416,0.64711 0.553543,0.93736 0.01243,0.025 0.276109,0.63289 0.382665,0.78057 0.01234,0.0171 -0.0072,-0.0416 -0.01073,-0.0624 0.52013,0.54609 0.930532,1.18794 1.297258,1.82844 0.484711,0.74348 0.72656,1.03824 1.273723,1.69626 0.676677,0.98474 1.222295,2.03715 1.244698,3.26138 -0.131183,-0.46774 -0.150197,-0.58152 -0.43734,-1.15058 -0.07441,-0.14746 -0.425212,-0.48951 -0.281779,-0.4076 0.552441,0.31546 0.61719,1.11569 1.058288,1.52365 0.686168,1.19787 1.477657,2.39802 1.759035,3.76427 0.177808,0.43323 -5.948912,2.94781 -6.126719,2.51458 z"
       inkscape:connector-curvature="0" />
    <path
       style="fill:#ffcc00;stroke-width:0.26458332"
       id="path859"
       d="m 75.72808,122.56942 c 1.862654,-1.26473 3.868415,-2.29763 5.926667,-3.20099 0.31202,-0.15245 3.778099,-1.65468 3.950292,-1.41809 0.09823,0.13497 -0.184769,0.27931 -0.257127,0.42974 -0.196659,0.40885 -0.365805,0.83038 -0.548709,1.24557 0.0024,0.46429 0.0667,0.93242 0.007,1.39287 -0.02207,0.17029 -0.107879,-0.32925 -0.122719,-0.50032 -0.142277,-1.64025 0.213714,-2.47134 1.15027,-3.76358 0.428057,-0.51299 0.910831,-0.98158 1.438151,-1.39308 0.181192,-0.1414 0.302033,-0.18139 0.46369,-0.35824 0.835226,-0.90365 1.737379,-1.62231 2.811979,-2.22874 0.09066,-0.0239 0.293005,-0.16295 0.271983,-0.0716 -0.03238,0.14075 -0.223117,0.18461 -0.322169,0.28971 -0.01016,0.0108 0.0519,-0.007 0.04407,0.005 -0.09201,0.14749 -0.200271,0.28449 -0.309353,0.41983 -0.0648,0.0804 0.118147,-0.16941 0.1763,-0.25474 0.08743,-0.12829 0.173627,-0.25742 0.26044,-0.38613 0.602419,-1.03379 1.664303,-1.51747 2.626336,-2.12298 0.113932,0.0628 0.07847,0.0287 0.193942,-0.10406 0.205565,-0.41903 6.13157,2.48807 5.926008,2.90711 v 0 c -0.505696,0.84506 -1.087996,1.61084 -1.868715,2.22845 -0.338855,0.18163 -0.803659,0.64674 -1.144882,0.72096 -0.433869,0.0944 0.321578,-0.31945 -0.11817,-0.19013 -0.0797,0.0234 -0.137742,0.0929 -0.206616,0.13936 -0.350663,0.19821 -0.624435,0.78804 -0.809715,1.01564 -0.363083,0.44601 -0.884312,0.81948 -1.409496,1.04241 0.634119,-0.91159 -0.529159,0.44877 -0.836182,0.43213 -0.493932,0.52799 -0.968674,1.10454 -1.552868,1.51112 -0.101669,0.11067 -0.170569,0.26485 -0.305007,0.33203 -0.165917,0.0829 -0.0259,-0.16291 -0.07084,-0.592 -0.0726,-0.69304 -0.6482,-2.4102 -0.07213,0.86164 -0.209227,0.51773 -0.353907,1.0665 -0.627681,1.55319 -0.886654,1.57621 -2.882988,2.12031 -4.332756,2.96731 -0.44786,0.22937 -0.885958,0.47889 -1.343581,0.68809 -1.8489,0.84523 -3.80941,1.39071 -5.700048,2.12417 -0.404609,0.23252 -3.692985,-5.48952 -3.288377,-5.72205 z"
       inkscape:connector-curvature="0" />
    <path
       style="fill:#ffcc00;stroke-width:0.26458332"
       id="path861"
       d="m 5.3408712,136.84382 c -1.9358634,-0.43334 -3.653337,-1.46132 -5.04312902,-2.85556 -0.24841336,-0.26689 -0.27267321,-0.28486 -0.56653323,-0.67529 -0.0149884,-0.0199 -0.0455986,-0.0849 -0.025381,-0.0703 0.34266939,0.24704 0.72051168,0.46064 1.00275428,0.77495 0.16264149,0.18112 -0.41186406,-0.26256 -0.63334581,-0.36357 -0.04329994,-0.0197 0.05733979,0.076 0.08600969,0.11396 0.0523307,0.0655 0.2316708,0.18062 0.0743768,0.26928 -0.16830432,0.0949 -0.76153673,0.0944 -0.56899859,0.11034 0.4123706,0.0342 1.65291898,0.0678 1.24104467,0.0281 -0.81984119,-0.0791 -1.64440643,-0.0976 -2.46660969,-0.14637 -1.1076539,-0.17817 -1.9563605,-0.89166 -2.7665171,-1.60802 -0.3042033,-0.26899 -0.1744903,-0.3013 -0.3567657,-0.22344 -0.9827228,-0.82652 -0.2455902,-0.27264 -0.3600312,-0.19156 -0.080973,0.0574 -0.1854801,-0.0746 -0.2832463,-0.0916 -0.1200846,-0.0209 -0.201495,0.0268 -0.3063467,0.0681 -0.6833791,-0.1932 -1.199945,-0.69425 -1.7994469,-1.04041 -0.060458,-0.0349 -0.1398661,-0.0311 -0.1969526,-0.0712 -0.5855264,-0.48833 -0.3341783,-0.3031 -0.7331419,-0.583 0.4120806,0.6812 -0.017026,0.18407 -0.4562033,0.0629 -0.3984686,-0.22484 2.7811957,-5.86003 3.1796643,-5.6352 v 0 c 0.1049329,0.0373 0.2064842,0.086 0.3147988,0.11181 0.033036,0.008 0.069738,-0.0256 0.1011108,-0.0126 0.6960238,0.28859 0.7548986,0.36435 1.3413841,0.75341 0.142581,0.0976 0.9761974,0.60264 1.0335384,0.60135 0.057961,-0.001 -0.2818702,-0.1582 -0.061779,-0.16258 0.9407749,0.32933 1.8308785,0.75436 2.62672716,1.35242 0.27158145,0.2138 0.52113311,0.45805 0.81164556,0.64531 0.0204507,0.0132 -0.0382549,-0.0431 -0.0307216,-0.0662 0.007235,-0.0222 0.0697698,-0.009 0.0625736,-0.0316 -0.0681732,-0.21062 -0.36121669,-0.15783 0.17521478,-0.12374 -0.50203784,-0.0102 -2.0082271,-0.0253 -1.50611356,-0.0305 1.47726604,-0.0154 2.88694386,-0.10368 4.21196936,0.59882 0.933813,0.57986 -0.2411883,-0.15152 -0.1580591,-0.0904 0.3872663,0.28493 0.7917195,0.54577 1.191089,0.81346 0.053239,0.0357 0.1220057,0.1427 0.1663523,0.0964 0.192296,-0.20065 -0.9695749,-0.66813 0.4136781,0.055 1.2274458,0.55978 2.4537001,1.13473 3.573767,1.89549 0.4046099,0.23253 -2.8837667,5.95457 -3.2883765,5.72205 z"
       inkscape:connector-curvature="0" />
    <path
       style="fill:#ffcc00;stroke-width:0.26458332"
       id="path863"
       d="m 6.2482941,153.63043 c -1.4652445,0.31633 -2.980781,0.22256 -4.4607348,0.0699 -0.3577317,-0.0367 -0.7126485,-0.10055 -1.07159363,-0.12624 -0.0831001,-0.006 -0.31524186,0.0407 -0.24970843,-0.0107 0.74259296,-0.34925 0.46731395,-0.15868 0.87942456,-0.48528 -0.76588627,0.46735 -1.27645715,0.76161 -2.23976949,1.17003 -1.21823591,0.41543 -2.27402521,0.31257 -3.60241051,0.26511 -0.486428,-0.0174 -0.9480611,-0.12236 -1.4382644,-0.12038 -1.7675555,-0.18011 -3.1980711,-1.20198 -4.5364264,-2.28342 -0.06219,-0.0344 -0.124373,-0.0687 -0.18656,-0.10305 0.02329,0.0434 0.118148,0.13969 0.06988,0.13007 -0.270416,-0.0539 -0.539507,-0.44237 -0.03765,0.12749 3.2671031,-0.20402 0.623665,0.11671 -0.101465,0.19373 -0.446581,0.13812 -2.399929,-6.17749 -1.953348,-6.31561 v 0 c 1.223056,0.008 2.432361,-0.14343 3.6588617,-0.12158 1.1368215,0.24135 2.2242894,0.63496 3.1983677,1.27436 0.6187186,0.37567 1.2427702,0.72534 1.9802232,0.77854 0.4756819,0.0732 0.4793509,0.0877 0.914478,0.11016 0.1083003,0.006 0.4336803,0.006 0.3252457,0.008 -2.6963746,0.0364 -1.4755741,-0.30862 -1.1897148,0.19681 0.096555,0.41545 0.8300831,-0.27499 0.9184206,-0.31265 0.045728,-0.0195 -0.1506535,0.37549 0.1291828,0.0745 0.7049729,-0.46644 0.6665299,-0.49036 1.6095279,-0.82575 0.33979994,-0.12086 0.90885231,0.0169 1.25097179,-0.13696 1.49287721,-0.16259 3.01599501,-0.23155 4.49663951,0.0699 0.4506691,-0.11571 2.0870863,6.25771 1.636417,6.37342 z"
       inkscape:connector-curvature="0" />
    <path
       style="fill:#000080;stroke-width:1.46926665"
       d="M 380.68846,774.45304 C 324.94737,770.13246 276.67088,762.43114 229.53911,750.34088 138.19057,726.90814 74.947146,693.1756 38.3167,648.3474 29.112115,637.08287 14.559346,616.59009 15.264066,615.88538 c 0.225132,-0.22514 18.569525,4.13168 40.765319,9.68181 66.089795,16.52597 131.963245,29.10054 207.852385,39.6769 17.77812,2.47766 36.29088,5.23506 41.13946,6.12754 4.84858,0.89248 14.43555,2.13733 21.30437,2.76632 6.86882,0.62899 36.29088,3.83521 65.38236,7.12492 75.72605,8.56322 162.98369,16.2047 236.55192,20.71574 27.5086,1.68677 105.22109,5.91404 108.72135,5.91404 1.21456,0 2.20828,0.58802 2.20828,1.30672 0,2.43196 -28.55514,20.51696 -44.17733,27.9791 -42.84314,20.46456 -108.64332,33.83445 -181.35509,36.84942 -30.45261,1.26272 -118.52984,1.54434 -132.96863,0.42515 z"
       id="path867"
       inkscape:connector-curvature="0"
       transform="scale(0.26458333)" />
  </g>
</svg>
