<?xml version="1.0" encoding="UTF-8" standalone="no"?>
<!-- Created with Inkscape (http://www.inkscape.org/) -->

<svg
   xmlns:dc="http://purl.org/dc/elements/1.1/"
   xmlns:cc="http://creativecommons.org/ns#"
   xmlns:rdf="http://www.w3.org/1999/02/22-rdf-syntax-ns#"
   xmlns:svg="http://www.w3.org/2000/svg"
   xmlns="http://www.w3.org/2000/svg"
   xmlns:sodipodi="http://sodipodi.sourceforge.net/DTD/sodipodi-0.dtd"
   xmlns:inkscape="http://www.inkscape.org/namespaces/inkscape"
   width="210mm"
   height="297mm"
   viewBox="0 0 210 297"
   version="1.1"
   id="svg8"
   inkscape:version="0.92.5 (2060ec1f9f, 2020-04-08)">
  <defs
     id="defs2" />
  <sodipodi:namedview
     id="base"
     pagecolor="#ffffff"
     bordercolor="#666666"
     borderopacity="1.0"
     inkscape:pageopacity="0.0"
     inkscape:pageshadow="2"
     inkscape:zoom="0.35"
     inkscape:cx="350"
     inkscape:cy="560"
     inkscape:document-units="mm"
     inkscape:current-layer="layer1"
     showgrid="false"
     inkscape:object-paths="true"
     showguides="true"
     inkscape:guide-bbox="true"
     inkscape:snap-others="false"
     inkscape:snap-global="true"
     inkscape:snap-smooth-nodes="true"
     inkscape:window-width="1280"
     inkscape:window-height="961"
     inkscape:window-x="-8"
     inkscape:window-y="-8"
     inkscape:window-maximized="1">
    <sodipodi:guide
       position="-329.59524,305.40476"
       orientation="1,0"
       id="guide4520"
       inkscape:locked="false" />
  </sodipodi:namedview>
  <metadata
     id="metadata5">
    <rdf:RDF>
      <cc:Work
         rdf:about="">
        <dc:format>image/svg+xml</dc:format>
        <dc:type
           rdf:resource="http://purl.org/dc/dcmitype/StillImage" />
        <dc:title></dc:title>
      </cc:Work>
    </rdf:RDF>
  </metadata>
  <g
     inkscape:label="Layer 1"
     inkscape:groupmode="layer"
     id="layer1">
    <path
       style="fill:none;stroke:#000000;stroke-width:0.26458332px;stroke-linecap:butt;stroke-linejoin:miter;stroke-opacity:1"
       d="M 89.995784,114.40076 Z"
       id="path4542"
       inkscape:connector-curvature="0" />
    <path
       style="fill:none;stroke:#000000;stroke-width:0.26458332px;stroke-linecap:butt;stroke-linejoin:miter;stroke-opacity:1"
       d="m 80.130953,144.29762 c 0,0 31.629677,51.27226 52.160717,42.33333 18.9907,-8.26829 29.64878,-41.03595 46.11309,-27.97023 13.71068,10.8805 31.21476,28.51242 26.45833,45.35714 -8.54732,30.27003 -52.96312,53.42139 -83.15476,44.60119 C 49.373462,227.48712 -13.474178,122.47153 11.339286,51.315476 21.385346,22.507005 65.498222,16.181459 96.005952,16.541667 121.43365,16.841895 129.93245,34.867914 127,66.434525 124.80846,90.025526 89.287193,87.046002 67.279762,89.113096 48.341508,90.891911 80.130953,144.29762 80.130953,144.29762 Z"
       id="path4553"
       inkscape:connector-curvature="0"
       sodipodi:nodetypes="caaasssssc" />
    <path
       style="fill:none;stroke:#000000;stroke-width:0.26458332px;stroke-linecap:butt;stroke-linejoin:miter;stroke-opacity:1"
       d="M 143.63095,109.52381 Z"
       id="path4555"
       inkscape:connector-curvature="0" />
    <path
       style="fill:#800000;stroke-width:2.85714293"
       d="M 471.42857,940.52974 C 421.70954,929.44674 350.66226,892.45954 294.60556,848.4758 262.26019,823.09666 199.17299,757.74566 172.03452,721.50643 90.284274,612.34169 40.20134,493.17989 26.918731,376.23397 19.185367,308.14604 29.631639,224.38401 51.3696,180.17793 80.409029,121.12369 157.30805,82.305223 271.41106,69.101465 c 42.08645,-4.870155 105.40471,-5.54993 123.70725,-1.328101 42.74395,9.859707 70.34883,40.613946 80.68423,89.889176 1.97763,9.42857 3.52623,34.78159 3.44132,56.34005 -0.19343,49.13544 -3.9692,62.2299 -23.10452,80.12874 -24.51611,22.93196 -57.98823,31.56981 -141.85363,36.60694 -66.6931,4.00573 -74.16587,5.64232 -80.34773,17.59673 -20.63096,39.89586 51.48256,194.48089 133.94145,287.12154 43.03306,48.3466 82.67914,75.06315 111.39023,75.06315 25.045,0 42.58263,-12.09195 90.29025,-62.25389 47.91512,-50.38009 60.1234,-59.16906 79.20166,-57.01866 15.14109,1.70663 28.88443,11.59343 63.67229,45.80526 51.7748,50.91746 70.79974,94.41689 59.10631,135.14317 -26.15134,91.08094 -150.21628,173.44857 -259.64866,172.38269 -12.82605,-0.12492 -31.03437,-1.94675 -40.46294,-4.04852 z"
       id="path4557"
       inkscape:connector-curvature="0"
       transform="scale(0.26458333)" />
    <path
       style="fill:#800000;stroke-width:2.85714293"
       d="M 465.01026,937.68994 C 422.26737,925.74011 363.9982,896.3118 315.03883,861.94826 285.47263,841.19634 213.33716,770.97337 184.43333,734.8054 156.38747,699.71103 120.46049,643.67237 98.971291,601.50229 50.135449,505.66754 27.142857,418.32323 27.142857,328.6402 c 0,-65.82185 8.991239,-114.55951 27.716474,-150.23914 26.135955,-49.80023 88.129649,-85.301008 179.048099,-102.532143 23.96955,-4.542781 47.29504,-6.365728 94.664,-7.398236 59.88466,-1.305315 63.65686,-1.068352 79.76803,5.010904 28.92271,10.91345 50.0246,34.384785 61.99491,68.956075 5.39906,15.59288 6.2986,24.57165 6.53469,65.22488 0.30423,52.38088 -1.80615,62.60624 -16.33637,79.15526 -24.43175,27.82624 -55.46895,36.24013 -161.96126,43.90614 -65.3953,4.70758 -70.4734,8.10526 -67.71258,45.30549 5.19234,69.96348 87.54201,216.45183 160.94495,286.29817 46.82434,44.55557 84.48691,58.2174 116.07151,42.10414 6.56335,-3.3484 33.85758,-27.59014 60.65383,-53.87057 26.79623,-26.28043 52.81115,-49.898 57.81092,-52.48348 23.40894,-12.10523 41.30497,-3.39818 85.48437,41.59117 68.76126,70.02188 77.5802,113.19831 36.25511,177.50094 -31.70031,49.32637 -96.42788,95.1016 -162.78463,115.12103 -21.03117,6.34497 -32.03737,7.79637 -65.29491,8.6106 -29.00997,0.71023 -44.11846,-0.172 -54.98974,-3.21149 z"
       id="path4559"
       inkscape:connector-curvature="0"
       transform="scale(0.26458333)" />
    <path
       style="fill:#800000;stroke-width:2.85714293"
       d="M 464.74483,937.62203 C 405.27431,921.02003 329.29449,877.70231 275.25699,829.59094 224.14325,784.08269 180.46768,733.58894 142.60786,676.23397 85.544777,589.7874 48.620129,499.3168 33.13858,408.01874 21.750917,340.86324 26.871501,247.94519 44.588886,200.24164 59.736191,159.45796 88.399457,129.74182 133.8002,107.75338 190.20468,80.435614 240.06985,70.375959 328.57143,68.460796 c 59.703,-1.291966 63.71737,-1.041883 80,4.983744 23.36077,8.644998 48.93557,34.37755 58.14506,58.50372 8.535,22.35925 12.8768,61.29436 10.90474,97.78849 -1.88303,34.84688 -7.25889,48.99082 -24.53586,64.55428 -23.511,21.17921 -50.84517,28.1804 -136.41091,34.93934 -31.17096,2.46224 -61.44882,5.72506 -67.28414,7.25073 C 235.35577,340.15047 230,348.41782 230,366.41266 c 0,65.08028 76.9311,208.77551 152.85714,285.51323 53.1846,53.75314 89.39129,69.08005 123.81803,52.41434 7.83074,-3.79077 31.76174,-24.66226 61.90963,-53.99463 27.02954,-26.29834 53.12737,-49.87474 57.99517,-52.39197 13.30406,-6.8798 29.33772,-5.81197 42.30703,2.81763 18.7466,12.47368 66.4,61.43597 81.22183,83.45271 30.86123,45.84217 30.29908,82.64226 -2.03086,132.94826 -31.99523,49.7852 -95.73448,94.93231 -162.36368,115.00371 -21.47763,6.46995 -32.30466,7.90755 -65.71429,8.72549 -29.26371,0.71643 -44.0946,-0.16372 -55.25517,-3.2794 z"
       id="path4565"
       inkscape:connector-curvature="0"
       transform="scale(0.26458333)" />
  </g>
</svg>
